<?xml version="1.0" encoding="UTF-8" standalone="no"?>
<svg
   xmlns:dc="http://purl.org/dc/elements/1.1/"
   xmlns:cc="http://creativecommons.org/ns#"
   xmlns:rdf="http://www.w3.org/1999/02/22-rdf-syntax-ns#"
   xmlns:svg="http://www.w3.org/2000/svg"
   xmlns="http://www.w3.org/2000/svg"
   xmlns:xlink="http://www.w3.org/1999/xlink"
   xmlns:sodipodi="http://sodipodi.sourceforge.net/DTD/sodipodi-0.dtd"
   xmlns:inkscape="http://www.inkscape.org/namespaces/inkscape"
   sodipodi:docname="tree.svg"
   inkscape:version="1.0 (4035a4fb49, 2020-05-01)"
   id="svg8"
   version="1.1"
   viewBox="0 0 210 297"
   height="297mm"
   width="210mm">
  <defs
     id="defs2">
    <linearGradient
       id="linearGradient921"
       inkscape:collect="always">
      <stop
         id="stop917"
         offset="0"
         style="stop-color:#006e00;stop-opacity:1;" />
      <stop
         id="stop919"
         offset="1"
         style="stop-color:#006e00;stop-opacity:0;" />
    </linearGradient>
    <radialGradient
       gradientUnits="userSpaceOnUse"
       gradientTransform="matrix(1,0,0,0.76240988,2.9002391,29.457664)"
       r="49.935542"
       fy="124.21393"
       fx="99.259769"
       cy="124.21393"
       cx="99.259769"
       id="radialGradient923"
       xlink:href="#linearGradient921"
       inkscape:collect="always" />
    <radialGradient
       gradientUnits="userSpaceOnUse"
       gradientTransform="matrix(1,0,0,0.75299876,0,24.47128)"
       r="53.201304"
       fy="99.073514"
       fx="101.33741"
       cy="99.073514"
       cx="101.33741"
       id="radialGradient925"
       xlink:href="#linearGradient921"
       inkscape:collect="always" />
    <filter
       id="filter1170"
       style="color-interpolation-filters:sRGB;"
       x="-0.25"
       width="1.5"
       y="-0.25"
       height="1.5"
       inkscape:label="Fade to Black or White"
       inkscape:menu="Materials"
       inkscape:menu-tooltip="3D warped, fibered wood texture">
      <feGaussianBlur
         id="feGaussianBlur1142"
         stdDeviation="4"
         result="result8" />
      <feTurbulence
         id="feTurbulence1144"
         seed="22"
         result="result7"
         type="fractalNoise"
         numOctaves="3"
         baseFrequency="0.025 0.2" />
      <feComposite
         id="feComposite1146"
         result="result6"
         in="SourceGraphic"
         operator="in"
         in2="result8" />
      <feDisplacementMap
         id="feDisplacementMap1148"
         in="result7"
         xChannelSelector="A"
         yChannelSelector="A"
         scale="50"
         result="result4"
         in2="result6" />
      <feFlood
         id="feFlood1150"
         flood-opacity="1"
         flood-color="rgb(230,211,138)" />
      <feComposite
         id="feComposite1152"
         result="result2"
         operator="atop"
         in2="result4" />
      <feComposite
         id="feComposite1154"
         result="result9"
         in="result2"
         operator="atop"
         in2="SourceGraphic" />
      <feGaussianBlur
         id="feGaussianBlur1156"
         stdDeviation="8"
         in="result9"
         result="result0" />
      <feSpecularLighting
         id="feSpecularLighting1160"
         in="result0"
         result="result1"
         lighting-color="rgb(255,255,255)"
         surfaceScale="5"
         specularConstant="0.7"
         specularExponent="15">
        <feDistantLight
           id="feDistantLight1158"
           elevation="50"
           azimuth="235" />
      </feSpecularLighting>
      <feComposite
         id="feComposite1162"
         in2="result9"
         in="result1"
         result="result2"
         operator="in" />
      <feComposite
         id="feComposite1164"
         in2="result2"
         in="result9"
         result="result4"
         operator="arithmetic"
         k2="0.5"
         k3="0.5" />
      <feConvolveMatrix
         id="feConvolveMatrix1166"
         result="result10"
         targetY="2"
         targetX="2"
         kernelMatrix="2 0 0 0 2 0 0 0 -2 "
         order="3 3" />
      <feBlend
         result="fbSourceGraphic"
         id="feBlend1168"
         in2="result10"
         in="result10"
         mode="multiply" />
      <feColorMatrix
         id="feColorMatrix1188"
         values="0 0 0 -1 0 0 0 0 -1 0 0 0 0 -1 0 0 0 0 1 0"
         in="fbSourceGraphic"
         result="fbSourceGraphicAlpha" />
      <feColorMatrix
         in="fbSourceGraphic"
         values="0.588542 0 0 0 0 0 0.588542 0 0 0 0 0 0.588542 0 0 0 0 0 1 0"
         id="feColorMatrix1190" />
    </filter>
    <filter
       height="1.0146589"
       y="-0.0073294342"
       width="1.0110451"
       x="-0.0055225583"
       id="filter1196"
       style="color-interpolation-filters:sRGB"
       inkscape:collect="always">
      <feGaussianBlur
         id="feGaussianBlur1198"
         stdDeviation="0.24403414"
         inkscape:collect="always" />
    </filter>
  </defs>
  <sodipodi:namedview
     inkscape:document-rotation="0"
     inkscape:window-maximized="0"
     inkscape:window-y="33"
     inkscape:window-x="320"
     inkscape:window-height="985"
     inkscape:window-width="1264"
     showgrid="false"
     inkscape:current-layer="layer1"
     inkscape:document-units="mm"
     inkscape:cy="451.23145"
     inkscape:cx="314.68696"
     inkscape:zoom="1.006865"
     inkscape:pageshadow="2"
     inkscape:pageopacity="0.0"
     borderopacity="1.0"
     bordercolor="#666666"
     pagecolor="#ffffff"
     id="base" />
  <metadata
     id="metadata5">
    <rdf:RDF>
      <cc:Work
         rdf:about="">
        <dc:format>image/svg+xml</dc:format>
        <dc:type
           rdf:resource="http://purl.org/dc/dcmitype/StillImage" />
        <dc:title></dc:title>
      </cc:Work>
    </rdf:RDF>
  </metadata>
  <g
     id="layer1"
     inkscape:groupmode="layer"
     inkscape:label="Layer 1">
    <path
       transform="scale(0.26458333)"
       id="path890"
       d="M 498.07812 584.88477 L 497.50977 584.48828 L 497.55664 584.93945 L 498.07812 584.88477 z "
       style="color:#000000;font-style:normal;font-variant:normal;font-weight:normal;font-stretch:normal;font-size:medium;line-height:normal;font-family:sans-serif;font-variant-ligatures:normal;font-variant-position:normal;font-variant-caps:normal;font-variant-numeric:normal;font-variant-alternates:normal;font-feature-settings:normal;text-indent:0;text-align:start;text-decoration:none;text-decoration-line:none;text-decoration-style:solid;text-decoration-color:#000000;letter-spacing:normal;word-spacing:normal;text-transform:none;writing-mode:lr-tb;direction:ltr;text-orientation:mixed;dominant-baseline:auto;baseline-shift:baseline;text-anchor:start;white-space:normal;shape-padding:0;clip-rule:nonzero;display:inline;overflow:visible;visibility:visible;opacity:1;isolation:auto;mix-blend-mode:normal;color-interpolation:sRGB;color-interpolation-filters:linearRGB;solid-color:#000000;solid-opacity:1;vector-effect:none;fill:#008100;fill-opacity:1;fill-rule:nonzero;stroke:none;stroke-width:40;stroke-linecap:butt;stroke-linejoin:miter;stroke-miterlimit:4;stroke-dasharray:none;stroke-dashoffset:0;stroke-opacity:1;color-rendering:auto;image-rendering:auto;shape-rendering:auto;text-rendering:auto;enable-background:accumulate" />
    <g
       id="g861">
      <path
         style="color:#000000;font-style:normal;font-variant:normal;font-weight:normal;font-stretch:normal;font-size:medium;line-height:normal;font-family:sans-serif;font-variant-ligatures:normal;font-variant-position:normal;font-variant-caps:normal;font-variant-numeric:normal;font-variant-alternates:normal;font-feature-settings:normal;text-indent:0;text-align:start;text-decoration:none;text-decoration-line:none;text-decoration-style:solid;text-decoration-color:#000000;letter-spacing:normal;word-spacing:normal;text-transform:none;writing-mode:lr-tb;direction:ltr;text-orientation:mixed;dominant-baseline:auto;baseline-shift:baseline;text-anchor:start;white-space:normal;shape-padding:0;clip-rule:nonzero;display:inline;overflow:visible;visibility:visible;opacity:1;isolation:auto;mix-blend-mode:normal;color-interpolation:sRGB;color-interpolation-filters:linearRGB;solid-color:#000000;solid-opacity:1;vector-effect:none;fill:#d45500;fill-opacity:1;fill-rule:nonzero;stroke:none;stroke-width:10.58333302;stroke-linecap:butt;stroke-linejoin:miter;stroke-miterlimit:4;stroke-dasharray:none;stroke-dashoffset:0;stroke-opacity:1;color-rendering:auto;image-rendering:auto;shape-rendering:auto;text-rendering:auto;enable-background:accumulate;filter:url(#filter1170)"
         d="m 125.17475,150.13961 -14.92053,-10.34924 -3.0639,1.57199 0.65216,7.25227 -3.75584,7.57784 -4.765606,-8.75761 -0.04961,-2.0097 -10.911996,5.59915 1.551326,1.26349 9.103839,16.72301 v 0.002 35.62883 h 10.583847 v -35.73581 -0.002 l 3.81269,-7.69152 3.72845,-7.52357 0.002,-0.002 3.22255,-1.42937 4.76922,-2.11925 h 0.002 z"
         id="path892"
         inkscape:connector-curvature="0" />
      <path
         style="color:#000000;font-style:normal;font-variant:normal;font-weight:normal;font-stretch:normal;font-size:medium;line-height:normal;font-family:sans-serif;font-variant-ligatures:normal;font-variant-position:normal;font-variant-caps:normal;font-variant-numeric:normal;font-variant-alternates:normal;font-feature-settings:normal;text-indent:0;text-align:start;text-decoration:none;text-decoration-line:none;text-decoration-style:solid;text-decoration-color:#000000;letter-spacing:normal;word-spacing:normal;text-transform:none;writing-mode:lr-tb;direction:ltr;text-orientation:mixed;dominant-baseline:auto;baseline-shift:baseline;text-anchor:start;white-space:normal;shape-padding:0;clip-rule:nonzero;display:inline;overflow:visible;visibility:visible;opacity:1;isolation:auto;mix-blend-mode:normal;color-interpolation:sRGB;color-interpolation-filters:linearRGB;solid-color:#000000;solid-opacity:1;vector-effect:none;fill:#008100;fill-opacity:1;fill-rule:nonzero;stroke:url(#radialGradient925);stroke-width:10.58333302;stroke-linecap:butt;stroke-linejoin:miter;stroke-miterlimit:4;stroke-dasharray:none;stroke-dashoffset:0;stroke-opacity:1;color-rendering:auto;image-rendering:auto;shape-rendering:auto;text-rendering:auto;enable-background:accumulate;filter:url(#filter1196)"
         d="M 98.673828 60.964844 C 98.073661 62.505185 98.107485 64.190388 98.181641 65.814453 C 97.940323 66.34392 97.246418 66.17428 96.835938 65.962891 C 93.236519 64.990575 89.738976 63.671031 86.129752 62.736094 C 85.489976 62.651074 84.820024 62.619 84.201172 62.833984 C 83.962298 63.180082 84.12954 63.719627 83.742188 63.976562 C 82.93263 63.955804 82.280326 63.32424 81.466797 63.326172 C 80.87182 64.03805 80.887175 65.088625 80.203125 65.742188 C 79.619472 65.657081 79.511606 64.966247 79.494141 64.482422 C 79.097625 63.297969 78.138205 62.447558 77.324219 61.546875 C 76.797717 61.334539 76.269845 61.768655 76.039062 62.216797 C 75.758532 62.406899 75.343149 62.03612 75.501953 61.736328 C 75.281961 61.196683 74.602555 61.398485 74.170897 61.499228 C 73.053353 61.658244 71.94013 61.845357 70.826172 62.027344 C 70.177103 61.39413 69.82727 60.537273 69.285156 59.822266 C 68.464133 59.919405 67.962715 60.683813 67.218707 60.968145 C 66.584896 61.322144 66.050064 61.902573 65.896484 62.625 C 65.71265 62.941286 65.286856 62.840934 65.015625 62.960938 C 64.789865 63.264903 65.07377 63.650659 64.982819 63.992717 C 64.967217 65.267674 64.309017 66.401342 63.885681 67.564361 C 63.743167 68.47666 64.02178 69.526589 63.444931 70.320961 C 62.815766 70.77737 62.03803 70.952549 61.380859 71.359375 C 61.345828 72.83452 62.701283 74.013741 62.421875 75.517578 C 62.195621 76.403491 60.924106 76.616049 60.325147 75.981943 C 59.758628 75.665051 59.169941 75.271389 58.492188 75.304688 C 57.996543 75.826175 56.988846 75.567214 56.697674 76.332597 C 56.37056 77.024702 56.195203 77.780486 55.847656 78.462891 C 55.720283 78.85516 55.363216 79.158088 54.940511 79.141096 C 53.954661 79.342435 52.841349 79.557515 52.212603 80.427443 C 52.029556 80.511694 51.733605 80.902548 52.098897 80.92681 C 52.455111 80.962817 52.851151 80.757963 53.173828 80.988281 C 52.325213 82.835374 51.213472 84.543931 50.229994 86.319315 C 49.562835 87.466132 48.895675 88.612949 48.228516 89.759766 C 48.466754 90.435603 49.299706 90.470441 49.779516 90.900526 C 50.395328 91.283234 51.105864 91.818568 51.871094 91.544922 C 52.220129 91.519731 52.059916 91.970873 51.931641 92.132812 C 51.75031 92.556498 51.548883 92.971262 51.371094 93.396484 C 52.624428 94.129714 53.983166 95.02518 55.506727 94.804747 C 56.740558 94.566417 57.811951 95.372165 58.896533 95.808606 C 59.194678 95.886675 59.5073 95.895472 59.8125 95.861328 C 59.81366 96.576675 59.128049 97.020772 58.950452 97.679041 C 57.917816 99.575799 57.251996 101.76532 57.546875 103.93945 C 57.438131 104.81347 56.48312 105.09505 55.925781 105.62891 C 54.835764 106.57141 53.987722 107.79266 53.501953 109.15039 C 53.805426 109.93022 54.740801 110.0348 55.360605 110.46253 C 55.744697 110.66457 56.119555 110.88349 56.498047 111.0957 C 56.114322 111.56113 55.4444 111.24459 54.950029 111.46648 C 53.847347 111.71799 52.886814 112.35883 52.011719 113.05078 C 51.834866 113.63256 52.400443 114.05878 52.602654 114.54845 C 53.143686 115.40694 53.787821 116.20085 54.257812 117.10352 C 53.624989 118.35175 53.14299 119.73498 53.271825 121.15439 C 53.274003 121.74909 53.323761 122.34213 53.357422 122.93555 C 53.70945 123.35788 54.291854 123.05684 54.748047 123.16211 C 54.887177 124.02144 54.844693 124.90722 54.789017 125.76689 C 54.484675 126.40998 53.877177 126.83582 53.476992 127.41064 C 53.294744 127.53572 53.089102 127.8405 53.37858 127.97086 C 53.878689 128.39789 54.378797 128.82492 54.878906 129.25195 C 54.79362 129.59635 54.708333 129.94076 54.623047 130.28516 C 55.171875 130.42057 55.720703 130.55599 56.269531 130.69141 C 55.889323 131.91862 55.509115 133.14583 55.128906 134.37305 C 55.861328 134.60026 56.59375 134.82747 57.326172 135.05469 C 57.302188 136.40676 57.902764 137.65105 58.251953 138.92969 C 60.088255 138.79724 61.705385 137.80866 63.479486 137.41124 C 65.111324 136.86856 66.743162 136.32588 68.375 135.7832 C 68.138726 134.2851 68.930894 132.71932 68.271484 131.27344 C 67.618796 129.47202 67.327556 127.37096 68.210938 125.59375 C 69.351564 123.6793 71.539099 122.64942 73.683709 122.35963 C 75.588905 121.85219 77.507319 122.55399 79.361328 122.95117 C 80.786611 123.30856 82.108198 124.0477 83.15557 125.07785 C 85.420038 126.91976 87.684201 128.76209 89.964844 130.58398 C 90.811667 130.64584 91.439754 129.96092 92.191635 129.69359 C 95.132965 128.18635 98.074295 126.67911 101.01562 125.17188 C 100.98034 121.82163 100.81111 118.47191 100.90039 115.12109 C 101.34317 114.15214 101.68465 113.13514 102.13309 112.17235 C 102.44815 111.74766 102.86504 111.33872 102.88088 110.77529 C 102.96133 110.42429 103.34994 110.22703 103.67771 110.37561 C 104.43709 110.52 105.28102 110.33063 105.97937 110.71677 C 106.5124 111.11066 106.68485 111.7904 107.0609 112.31134 C 107.8165 113.5532 108.47428 114.9131 108.5413 116.39065 C 108.70964 117.80309 108.70387 119.23438 108.95898 120.63672 C 109.33335 121.07092 109.9039 120.65982 110.27366 120.43176 C 110.89634 120.0425 111.7014 119.54176 112.43402 119.95463 C 114.3635 121.10324 116.14938 122.47124 118.02494 123.70289 C 120.95407 125.71016 123.88494 127.7149 126.81641 129.71875 C 128.27651 130.14696 129.9552 129.66956 131.28125 130.5625 C 132.41634 131.37651 133.15716 132.65363 133.47852 133.99805 C 134.81857 135.38421 136.57852 136.25117 138.33398 136.98828 C 138.63243 136.96621 138.68783 136.54322 138.99023 136.53125 C 139.2267 136.88172 139.17087 137.40576 139.55664 137.65625 C 142.82274 136.86539 146.05952 135.96046 149.30273 135.08203 C 149.71917 134.35385 149.26267 133.50691 149.46603 132.7353 C 149.51782 131.02438 148.76623 129.43526 148.00974 127.947 C 147.58789 126.87705 147.36459 125.53745 148.07946 124.54043 C 148.70945 123.82261 149.68799 123.61204 150.58008 123.41797 C 151.06957 122.94641 150.70676 122.22147 150.89585 121.64414 C 150.99331 120.84613 150.7946 120.0095 151.0405 119.23515 C 151.37266 118.7493 151.95206 118.54515 152.41992 118.22266 C 152.52205 117.30578 151.71151 116.6838 151.36719 115.91797 C 151.34657 115.4664 151.93065 115.49599 152.17878 115.24809 C 153.16815 114.60749 153.81088 113.52148 154.04883 112.38086 C 154.41683 112.01386 154.3526 111.27199 153.82088 111.09767 C 152.59552 110.19517 151.53426 108.81527 151.54976 107.23173 C 151.65144 106.80263 151.65261 106.12589 151.09795 106.0319 C 149.89502 105.68137 148.52535 105.7485 147.48438 104.95898 C 146.68989 103.80147 146.87822 102.29024 147.22112 101.00951 C 147.48654 100.01492 147.71791 98.978148 147.52259 97.948034 C 147.48577 97.473013 147.40855 97.003055 147.33203 96.533203 C 146.6022 96.254698 145.81421 96.526257 145.0625 96.564453 C 144.82409 96.618099 144.40541 96.650564 144.48379 96.297402 C 144.50251 95.979716 144.88466 95.567626 144.48828 95.330078 C 144.22453 95.137133 143.86883 94.795455 144.1193 94.455027 C 144.27894 94.260978 144.52578 94.023453 144.40493 93.754205 C 144.22914 93.509883 143.94926 93.283837 143.62781 93.223381 C 143.36682 93.148448 143.26607 92.918651 142.98902 92.834537 C 142.87083 92.624145 142.84189 92.470536 142.80273 92.177734 C 142.75051 91.906642 142.85918 91.619111 142.63086 91.402344 C 142.72666 91.167464 142.44624 90.874553 142.66016 90.681641 C 142.89039 90.345602 143.33269 90.311478 143.59127 90.003976 C 144.39825 89.334394 145.22225 88.684729 146.05859 88.050781 C 145.55859 87.340495 145.05859 86.630208 144.55859 85.919922 C 145.1862 85.500651 145.8138 85.08138 146.44141 84.662109 C 146.00977 84.241536 145.57812 83.820964 145.14648 83.400391 C 145.39586 83.352439 145.47963 83.163919 145.41737 83.130265 C 145.50155 82.992954 145.27161 82.781953 145.54576 82.636337 C 145.79853 82.457084 146.04476 82.378155 146.11349 82.45385 C 146.38796 82.560806 146.50262 82.154869 146.67578 82.197266 C 146.89266 82.153363 146.86851 82.004331 147.07358 82.139997 C 147.15034 82.202996 147.00587 82.51919 147.16919 82.221924 C 147.19237 82.151915 147.39802 82.056184 147.47432 82.123829 C 147.64671 81.888922 147.54125 82.23826 147.69727 82.351562 C 147.84009 82.536488 148.16071 82.484665 148.32812 82.273438 C 148.42946 82.411584 148.7738 82.37818 148.82803 82.425894 C 148.8617 82.29646 149.12731 82.413519 149.34375 82.253906 C 149.39502 82.630238 149.67427 82.10321 149.86224 82.33562 C 149.86538 82.187677 150.16571 82.196462 150.25977 82.347656 C 150.51416 82.209897 150.54995 82.270276 150.62165 82.031269 C 150.58125 81.676245 150.58292 81.893335 150.69853 81.607989 C 150.7091 81.526824 150.69622 81.221185 150.62964 81.314894 C 150.73685 81.178349 150.70555 80.907476 150.69141 80.775391 C 150.52436 80.657528 150.59584 80.50249 150.72656 80.265625 C 150.60069 80.049404 150.80821 79.846196 150.53948 79.707831 C 150.79655 79.731687 150.55877 79.38325 150.68569 79.527148 C 150.4714 79.266446 150.63301 79.396512 150.51172 79.109375 C 150.53105 78.986847 150.3555 78.817796 150.5517 78.721693 C 150.51248 78.707207 150.46772 78.283105 150.55861 78.310048 C 150.6333 78.336156 150.65858 78.168329 150.59186 77.930331 C 150.63729 77.68214 150.337 77.762286 150.35808 77.56456 C 150.62324 77.51503 150.33037 77.280592 150.29492 77.136719 C 150.35021 76.810209 150.19981 76.829549 150.21077 76.643126 C 150.58884 76.420898 150.02172 76.489599 150.29024 76.335717 C 150.33054 76.35165 150.22287 75.725482 150.29688 75.900391 C 150.23452 75.638422 150.32247 75.353804 150.13672 75.275391 C 150.04394 75.052183 150.31615 74.946847 150.1582 74.728516 C 150.19561 74.5826 150.24921 74.572418 150.13327 74.369759 C 150.08429 74.247976 150.10408 74.209993 150.09884 74.12533 C 149.98475 73.881156 149.94188 73.776546 149.85156 73.5 C 149.84116 73.326016 150.06174 73.193351 149.79883 72.949679 C 149.68637 72.724902 150.01362 72.54952 149.95041 72.471723 C 149.70282 72.276825 149.74043 72.276208 149.89062 72.140625 C 150.12603 71.937425 149.76985 71.98898 149.75137 71.713782 C 149.68515 71.456919 149.59888 71.826284 149.38867 71.736328 C 149.30151 71.593047 149.2981 71.605647 149.25586 71.517578 C 149.26832 71.39846 149.04845 71.59918 149.00781 71.751953 C 148.78399 71.714366 148.99862 71.611389 148.84961 71.542969 C 148.78485 71.640965 148.72552 71.552406 148.63477 71.423828 C 148.62682 71.408233 148.37275 71.694688 148.28606 71.416611 C 148.31691 71.211261 147.99737 71.383843 147.84375 71.330078 C 147.69517 71.269256 147.97654 71.305482 147.83211 71.227781 C 147.75175 71.264125 147.71309 71.157913 147.4707 71.029297 C 147.10478 70.930505 147.33328 70.769322 147.10352 70.634766 C 147.033 70.537968 147.38456 70.483814 147.15039 70.210938 C 146.82468 70.260221 146.91289 70.152422 146.82241 69.91697 C 146.89786 69.690429 147.14704 69.800304 146.99236 69.434878 C 146.6257 69.353088 146.84965 69.386955 146.66602 69.136719 C 146.49967 68.889709 146.80759 68.835092 146.7168 68.625 C 146.59722 68.538763 146.50699 68.553438 146.35156 68.351562 C 146.5583 68.081193 146.25203 68.129964 146.22802 67.871534 C 146.10833 67.70662 145.81747 67.95913 145.73212 67.97186 C 145.53644 67.849536 145.51781 67.839826 145.39012 67.999988 C 145.3514 67.910093 144.87584 67.919349 145.0293 68.111328 C 144.75962 68.106573 144.78354 68.405569 144.66211 68.148438 C 144.51473 68.305603 144.67276 68.284825 144.34375 68.378906 C 144.07479 68.46917 144.17463 68.183582 143.88477 68.384766 C 143.76499 68.400794 143.61603 68.633131 143.74914 68.652345 C 143.35054 68.547792 143.54022 68.820946 143.2806 68.834579 C 143.13153 68.886322 142.92727 68.895738 142.8299 68.684153 C 142.63199 68.554216 142.86513 68.751806 142.55859 68.751953 C 142.50812 68.868925 142.68451 68.892368 142.33855 68.7878 C 142.56274 68.747386 142.18498 68.63945 142.22901 68.628872 C 142.13452 68.443032 142.11751 68.431904 142.01656 68.416606 C 141.73007 68.470672 141.83422 68.173172 141.63523 68.082895 C 141.50772 68.07258 141.64684 68.313986 141.51953 68.164062 C 141.27696 68.230821 141.57622 67.829254 141.72461 67.878906 C 141.85001 67.95698 141.66635 67.649913 141.5293 67.640625 C 141.82907 67.676717 141.16189 67.557512 141.4617 67.688921 C 141.37387 67.880347 141.11962 67.689727 141.08276 67.684951 C 141.1787 67.437725 140.6284 67.495203 140.66769 67.408571 C 140.78551 67.13578 140.67309 67.424894 140.79297 67.308594 C 140.70259 67.241097 140.75897 67.179058 140.8418 67.273438 C 140.94446 67.463961 140.99859 67.167967 140.85547 67.191406 C 140.84743 67.153482 140.59995 66.990881 140.56055 66.990234 C 140.3478 67.135339 140.37654 66.622907 140.16138 66.531539 C 139.95873 66.36696 139.80989 66.126152 139.60922 66.209659 C 139.50843 66.155319 139.43392 66.301174 139.21875 66.427734 C 139.02739 66.412143 138.99068 66.446164 138.75249 66.405027 C 138.64648 66.197156 138.63332 66.31506 138.36914 66.246094 C 138.55691 66.159909 138.19336 66.707739 138.1129 66.537123 C 137.91017 66.491504 137.54333 66.518277 137.63716 66.768702 C 137.50747 66.756355 137.34401 66.690372 137.1582 66.888672 C 136.96689 66.855845 137.03003 66.903077 136.94922 67.058594 C 137.01168 67.112505 137.03637 67.317897 136.95312 67.158203 C 136.77086 67.207406 136.55179 67.118733 136.4306 67.359208 C 136.40879 67.436175 136.15535 67.507537 136.07212 67.625293 C 135.96953 67.742429 136.21611 67.881814 136.04108 67.875349 C 135.9231 68.06155 135.59741 67.879528 135.77148 67.830078 C 135.57916 67.754284 135.8084 68.040547 135.55664 67.951172 C 135.4431 67.814897 135.50896 68.098798 135.55201 68.119973 C 135.33021 68.30618 135.72806 68.39371 135.58984 68.378906 C 135.52718 68.431591 135.37391 68.430226 135.32812 68.402344 C 135.16395 68.29371 134.9683 68.263753 135.14496 68.549614 C 135.12079 68.858529 134.9749 68.705369 134.85352 68.708984 C 134.50421 68.606716 134.7505 68.886449 134.75947 68.902929 C 134.83879 69.158334 134.52573 69.11347 134.54883 69.175781 C 134.54101 69.263951 134.75615 69.161597 134.8527 69.252805 C 134.83833 69.345635 134.65356 69.374762 134.47852 69.5 C 134.41878 69.733999 134.23655 69.662616 134.09666 69.918992 C 134.04132 69.870589 133.91628 69.866318 133.85547 69.892578 C 133.69903 69.773676 133.76819 70.004018 133.5293 69.988281 C 133.35888 69.907838 133.4823 70.055752 133.25689 69.982336 C 133.21254 69.806523 133.00976 69.912776 132.99609 69.855469 C 133.12912 69.418026 133.04792 69.743207 132.75658 69.70042 C 132.78748 69.447428 132.44293 69.77753 132.66602 69.542969 C 132.64704 69.537555 132.70058 69.253579 132.5625 69.308594 C 132.66397 69.491661 132.4732 69.334232 132.35742 69.595703 C 132.62605 69.717234 132.06252 69.605316 132.17132 69.377927 C 132.07037 69.239109 132.37485 69.080033 132.05469 68.941406 C 131.90262 68.82085 132.24943 68.687329 132.04102 68.607422 C 131.92111 68.549964 131.69776 68.489288 131.49993 68.729316 C 131.26848 68.911584 131.33155 68.873693 131.38828 68.676658 C 131.18358 68.468735 131.33258 68.820185 131.125 68.701172 C 131.20428 68.831777 130.84866 68.680252 130.7453 68.555959 C 130.5996 68.559251 130.43235 68.642745 130.31268 68.646725 C 130.24473 68.74652 130.14507 68.446645 130.22855 68.265857 C 130.46343 68.168371 130.04029 68.135911 130.12891 67.931641 C 130.2524 67.706881 130.14011 67.414072 130.23241 67.322217 C 130.23926 67.164583 129.85952 67.293163 129.97946 67.070055 C 129.93151 66.890671 129.72405 66.888166 129.73709 66.724975 C 129.72998 66.639703 129.9423 66.275127 129.81377 66.145063 C 129.83691 65.938608 129.44795 66.05584 129.35493 65.832667 C 129.14677 65.698275 129.07214 65.959859 128.98927 66.027674 C 128.81016 66.143705 128.53448 65.946107 128.45508 66.119141 C 128.21898 66.112488 128.04785 66.376051 127.87208 66.176506 C 127.75688 66.01446 127.92089 65.691278 127.66597 65.730457 C 127.43655 65.584376 127.14492 65.413365 127.125 65.123047 C 126.93844 64.937333 126.67708 64.904359 126.44336 64.910156 C 126.21397 64.791804 126.38483 64.32724 126.06055 64.324219 C 125.82766 64.199752 125.45911 64.464734 125.34375 64.128906 C 125.05643 63.843918 124.56064 63.900569 124.29883 63.574219 C 123.89067 63.529817 123.69785 63.99256 123.62938 64.326262 C 123.54248 64.750997 123.1442 65.000721 123.01172 65.408203 C 122.8538 65.649256 122.58642 65.630616 122.36402 65.48891 C 119.99209 64.56824 117.61933 63.649705 115.24609 62.732422 C 114.82738 63.852194 114.31758 64.942091 114.01953 66.103516 C 113.53933 66.534037 112.84435 66.295863 112.27589 66.458957 C 111.65739 66.436194 111.03518 66.316529 110.41797 66.421875 C 109.86433 66.178137 110.01415 65.475086 110.04883 64.996094 C 110.14176 63.301111 110.22028 61.605383 110.30859 59.910156 C 109.48917 59.318622 108.39472 59.718836 107.51623 59.293108 C 106.03238 59.154567 104.97756 60.595082 103.52009 60.582873 C 102.66082 60.521406 101.94759 59.976016 101.14955 59.706458 C 100.60285 59.475257 100.05375 59.249818 99.505859 59.021484 C 99.228516 59.669271 98.951172 60.317057 98.673828 60.964844 z M 131.26367 68.583984 C 131.26972 68.3984 131.13829 68.780873 131.26367 68.583984 z M 135.72266 67.878906 C 135.74492 67.984752 135.76453 67.869857 135.72266 67.878906 z M 140.79297 67.259766 C 140.78231 67.323766 140.86697 67.245698 140.79297 67.259766 z M 141.68359 68.082031 C 141.80839 67.966814 141.74556 67.97306 141.62457 67.91672 C 141.54413 68.03817 141.79468 67.924975 141.68359 68.082031 z M 147.54883 71.095703 C 147.70436 71.155817 147.62554 71.027415 147.54883 71.095703 z M 147.85156 71.306641 C 147.87802 71.330711 147.86282 71.290485 147.85156 71.306641 z M 148.82422 71.546875 C 148.87407 71.557108 148.81399 71.497019 148.82422 71.546875 z M 147.11914 82.179688 C 146.99771 82.236112 147.02476 82.251322 147.11914 82.179688 z M 83.900391 65.28125 C 84.083388 65.561884 83.861757 65.990381 83.529297 66.009766 C 83.410333 65.712305 83.611432 65.377917 83.876953 65.238281 L 83.900114 65.280743 L 83.900391 65.28125 z M 127.07031 65.248047 C 127.06623 65.352337 126.89732 65.244014 127.07031 65.248047 z M 129.51758 65.767578 C 129.63079 65.746848 129.75692 65.723754 129.51758 65.767578 z M 139.84766 66.28125 C 139.95243 66.520512 139.73079 66.384921 139.72461 66.390625 C 139.8868 66.364795 139.71529 66.265346 139.84766 66.28125 z M 139.74414 66.517578 C 139.66087 66.617237 139.75578 66.334659 139.74414 66.517578 z M 138.21484 66.621094 C 138.09937 66.673305 138.255 66.56063 138.21484 66.621094 z M 137.14648 66.853516 C 137.17038 66.878096 137.18913 66.780488 137.14648 66.853516 z M 137.45312 66.912109 C 137.35921 66.947907 137.48975 66.799635 137.45312 66.912109 z M 140.92773 67.134766 C 140.84853 67.180193 141.10241 67.104773 140.92773 67.134766 z M 136.29688 67.203125 C 136.39747 67.158797 136.49411 67.116209 136.29688 67.203125 z M 141.00977 67.205078 C 141.02808 67.251275 141.09405 67.094802 141.00977 67.205078 z M 141.00977 67.205078 C 140.90118 67.226471 141.03899 67.259059 141.00977 67.205078 z M 136.93359 67.232422 C 136.85928 67.271633 136.95646 67.134267 136.93359 67.232422 z M 141.01562 67.236328 C 141.03468 67.251697 141.02107 67.221071 141.01562 67.236328 z M 136.99609 67.291016 C 136.95778 67.242292 136.99553 67.213196 136.99609 67.291016 z M 136.95312 67.261719 C 136.94582 67.249583 136.98346 67.247777 136.95312 67.261719 z M 136.6875 67.296875 C 136.75235 67.405954 136.54842 67.215364 136.6875 67.296875 z M 136.92578 67.3125 C 136.86632 67.440839 136.92459 67.195969 136.92578 67.3125 z M 141.02344 67.314453 C 141.09893 67.354328 140.96311 67.221357 141.02344 67.314453 z M 141.29688 67.332031 C 141.33179 67.320041 141.18402 67.283884 141.29688 67.332031 z M 141.35547 67.361328 C 141.5738 67.493831 141.34692 67.249496 141.35547 67.361328 z M 141.07227 67.339844 C 141.00193 67.402817 141.15198 67.29451 141.07227 67.339844 z M 140.84766 67.390625 C 140.91587 67.332191 140.82863 67.288726 140.84766 67.390625 z M 141.10156 67.367188 C 140.84966 67.501959 141.24154 67.372824 141.10156 67.367188 z M 141.03906 67.375 C 141.0322 67.415958 141.08208 67.349897 141.03906 67.375 z M 98.359375 67.404297 C 99.541813 68.976752 99.249385 71.28902 98.052734 72.767578 C 97.857045 73.062349 97.665652 73.359883 97.478516 73.660156 C 97.164451 73.215527 97.706218 72.808436 97.820744 72.393063 C 97.996799 72.018177 98.177268 71.645414 98.359375 71.273438 C 98.158387 70.713539 97.415663 70.732034 97.119141 70.255859 C 97.653375 69.363415 97.92245 68.349372 98.337891 67.402344 L 98.359375 67.404297 z M 141.1543 67.451172 C 141.19885 67.471919 141.18464 67.342712 141.1543 67.451172 z M 141.1543 67.451172 C 141.12664 67.370186 141.08638 67.508095 141.1543 67.451172 z M 141.21094 67.537109 C 141.32642 67.493805 141.2599 67.387044 141.21094 67.537109 z M 141.34766 67.496094 C 141.16059 67.579581 141.41527 67.5998 141.39648 67.462891 C 141.34584 67.581229 141.34562 67.387181 141.34766 67.496094 z M 141.34375 67.615234 C 141.35652 67.781506 141.34145 67.524854 141.34375 67.615234 z M 145.47461 67.828125 C 145.54921 67.821133 145.41984 67.692986 145.47461 67.828125 z M 135.64453 67.783203 C 135.62143 67.927059 135.78598 67.696395 135.64453 67.783203 z M 141.79492 67.970703 C 141.81116 68.03913 141.83324 67.876545 141.79492 67.970703 z M 145.37695 68.080078 C 145.25173 68.304103 145.39144 67.982998 145.37695 68.080078 z M 141.55273 68.115234 C 141.56741 68.098645 141.49507 68.080585 141.55273 68.115234 z M 144.12109 68.189453 C 144.17394 68.106732 144.16746 68.116885 144.12109 68.189453 z M 141.88086 68.208984 C 142.06937 68.240426 141.95517 68.066104 141.88086 68.208984 z M 144.16602 68.226562 C 144.14961 68.381386 144.22052 68.200762 144.16602 68.226562 z M 144.20312 68.222656 C 144.201 68.21577 144.1743 68.219086 144.20312 68.222656 z M 141.54688 68.226562 C 141.44868 68.278294 141.44059 68.246102 141.54688 68.226562 z M 144.0293 68.291016 C 144.09549 68.218984 144.03924 68.192409 144.0293 68.291016 z M 135.69336 68.380859 C 135.63933 68.453983 135.73271 68.087813 135.69336 68.380859 z M 135.02148 68.335938 C 135.02408 68.391068 135.07744 68.300298 135.02148 68.335938 z M 134.98242 68.392578 C 135.08143 68.379126 134.98753 68.272226 134.98242 68.392578 z M 134.98828 68.419922 C 134.60278 68.337666 135.16554 68.470841 134.98828 68.419922 z M 135.03906 68.455078 C 135.07715 68.479914 135.04261 68.423132 135.03906 68.455078 z M 131.45117 68.478516 L 131.49805 68.476562 L 131.45117 68.478516 z M 131.38477 68.597656 C 131.41155 68.713714 131.46363 68.582367 131.42773 68.619141 C 131.34838 68.511416 131.4081 68.595184 131.38477 68.597656 z M 131.45898 68.611328 C 131.46657 68.608185 131.4514 68.608185 131.45898 68.611328 z M 130.72852 68.757812 C 130.48884 68.754484 130.89825 68.585546 130.72852 68.757812 z M 131.11133 68.703125 C 131.11284 68.722473 131.13262 68.687223 131.11133 68.703125 z M 134.73633 68.738281 C 134.66969 68.846655 134.66994 68.700901 134.73633 68.738281 z M 142.48633 68.777344 C 142.58285 68.748682 142.42652 68.712055 142.48633 68.777344 z M 132.23047 68.916016 C 132.24507 68.732493 132.25124 68.654948 132.23047 68.916016 z M 143.20703 68.875 C 143.1251 68.926231 143.22784 68.717991 143.20703 68.875 z M 134.64844 69.166016 C 134.52992 69.190172 134.57764 69.130103 134.64844 69.166016 z M 134.5625 69.166016 C 134.54041 69.17281 134.55945 69.158491 134.5625 69.166016 z M 132.34961 69.365234 C 132.22511 69.202433 132.20496 69.176078 132.34961 69.365234 z M 132.51758 69.34375 C 132.55347 69.36331 132.57951 69.251957 132.51758 69.34375 z M 132.62695 69.458984 C 132.59306 69.527354 132.62298 69.427557 132.62695 69.458984 z M 132.74414 69.560547 C 132.81306 69.65413 132.84109 69.399157 132.74414 69.560547 z M 133.23633 69.695312 C 132.99087 69.715061 133.24254 69.805297 133.2792 69.708394 C 133.35918 69.705781 133.21585 69.681749 133.23633 69.695312 z M 133.00391 69.705078 C 132.97156 69.766108 132.87989 69.647977 133.00391 69.705078 z M 133.24609 69.777344 C 133.11537 70.019505 133.38184 69.619307 133.24609 69.777344 z M 133.81836 69.818359 C 133.85184 69.891203 133.91839 69.647233 133.81836 69.818359 z M 132.55664 69.775391 C 132.5391 69.779505 132.52757 69.725757 132.55664 69.775391 z M 133.85742 69.839844 C 133.85976 69.835341 133.84557 69.833974 133.85742 69.839844 z M 146.78125 69.896484 C 146.74086 69.889379 146.84835 69.806282 146.78125 69.896484 z M 134.01758 69.947266 C 134.01001 69.944939 134.02667 69.939778 134.01758 69.947266 z M 133.88867 70.021484 C 133.88827 70.168418 133.85224 69.971474 133.88867 70.021484 z M 134.06055 70.037109 C 134.17705 70.184071 133.81772 70.030079 134.06055 70.037109 z M 134.00391 70.113281 C 133.89776 70.13835 133.98826 70.080854 134.00391 70.113281 z M 147.09961 70.160156 C 147.17685 70.282532 147.14802 70.050987 147.09961 70.160156 z M 133.91992 70.177734 C 133.93628 70.327447 133.78469 70.126287 133.91992 70.177734 z M 146.86523 70.207031 C 146.70851 70.222063 146.93272 70.117406 146.86523 70.207031 z M 147.25195 70.398438 C 147.29506 70.587797 147.37745 70.336894 147.25195 70.398438 z M 149.21484 71.507812 C 149.19085 71.517127 149.22505 71.499792 149.21484 71.507812 z M 149.16797 71.566406 C 149.14274 71.584346 149.23004 71.465127 149.16797 71.566406 z M 148.78711 71.542969 C 148.81802 71.565398 148.77717 71.51239 148.78711 71.542969 z M 148.85938 71.552734 C 148.85253 71.550572 148.86536 71.535015 148.85938 71.552734 z M 148.5 71.564453 C 148.4591 71.664784 148.39343 71.487436 148.5 71.564453 z M 148.81055 71.591797 C 148.93578 71.616303 148.80257 71.65992 148.81055 71.591797 z M 96.923828 74.283203 C 97.145996 74.423798 96.757961 74.264174 96.923828 74.283203 z M 119.42188 77.615234 C 119.72152 77.80549 120.10597 77.756624 120.43359 77.662109 C 120.63642 77.803408 120.6061 78.127246 120.83789 78.228516 C 120.90252 78.662153 121.2288 78.982419 121.38568 79.375659 C 121.61028 79.516968 121.73139 79.73691 121.63101 79.999857 C 121.48262 80.326529 122.03146 80.274405 122.03435 80.562172 C 122.06056 81.028838 122.23106 81.507928 122.10156 81.982422 C 122.31441 82.23442 121.82107 82.482458 122.00781 82.748047 C 121.98075 82.964113 121.82798 83.217471 122.03892 83.391969 C 122.12312 83.661978 121.68308 83.861344 121.88694 84.144206 C 122.07626 84.426988 121.83658 84.557729 121.76393 84.809663 C 121.61749 85.121096 121.52989 84.706391 121.35687 84.683874 C 121.17842 84.637685 120.77356 84.836788 120.84021 84.497628 C 120.8692 84.257625 121.17469 84.243677 121.34766 84.271484 C 121.67929 84.171268 121.49588 83.783173 121.45874 83.559001 C 121.53624 83.299241 121.42545 83.058763 121.37295 82.850414 C 121.32415 82.586364 120.98333 82.385722 121.18164 82.111328 C 121.37135 81.8711 121.0746 81.65014 121.11501 81.432132 C 121.27031 81.229339 121.27602 81.001005 121.04987 80.843452 C 120.88933 80.571607 120.7789 80.211214 120.97656 79.927734 C 121.03403 79.655119 120.67422 79.672913 120.48242 79.630859 C 120.49277 79.442352 120.7302 79.127901 120.41406 79.082031 C 120.264 78.886758 120.45775 78.50859 120.15234 78.419922 C 119.91286 78.247269 119.68077 78.522786 119.61722 78.744996 C 119.43104 79.005939 119.12783 78.801685 118.89244 78.921881 C 118.51883 79.076227 117.9779 79.280523 117.69531 78.863281 C 117.53858 78.674638 117.54354 78.260123 117.87305 78.300781 C 118.19648 78.278794 118.38111 77.823893 118.74147 77.98548 C 119.07632 78.135864 119.12314 77.726592 119.31836 77.582031 C 119.3644 77.555712 119.39093 77.590035 119.42188 77.615234 z M 120.64258 78.373047 C 120.68064 78.533143 120.68936 78.332289 120.64258 78.373047 z M 119.54883 78.636719 C 119.51383 78.765296 119.69069 78.493517 119.54883 78.636719 z M 120.17773 78.621094 C 120.30013 78.71864 120.09619 78.654133 120.17773 78.621094 z M 121.03516 78.619141 C 121.0352 78.767868 120.96877 78.606445 121.03516 78.619141 z M 119.50391 78.710938 C 119.54825 78.668381 119.54248 78.649299 119.50391 78.710938 z M 119.2832 78.763672 C 119.21744 78.946719 119.453 78.603821 119.2832 78.763672 z M 121.96094 80.748047 C 121.92625 80.961908 122.07339 80.686147 121.96094 80.748047 z M 122.01367 80.861328 L 121.99414 80.855469 L 122.01367 80.861328 z M 121.24414 81.34375 C 121.35071 81.471477 121.58012 81.224659 121.24414 81.34375 z M 121.15234 81.494141 C 121.04375 81.580586 121.25054 81.481947 121.15234 81.494141 z M 150.7168 81.611328 C 150.72258 81.627729 150.74027 81.585574 150.7168 81.611328 z M 147.01367 82.251953 C 147.03644 82.245437 146.98541 82.241803 147.01367 82.251953 z M 147.01758 82.255859 C 147.05971 82.319632 147.13241 82.219796 147.01758 82.255859 z M 147.17188 82.341797 C 147.22904 82.50947 147.18883 82.203541 147.17188 82.341797 z M 146.06836 82.359375 C 145.98847 82.385175 146.07911 82.315256 146.06836 82.359375 z M 145.98242 82.572266 C 145.988 82.640065 146.06837 82.599989 145.98242 82.572266 z M 121.48828 82.818359 L 121.44727 82.802734 L 121.48828 82.818359 z M 121.48047 82.84375 C 121.42101 83.012823 121.56007 82.809581 121.48047 82.84375 z M 121.25977 83.96875 C 121.31063 84.037494 121.16492 83.940304 121.25977 83.96875 z M 121.06836 84.152344 C 121.19491 84.219621 120.9888 84.109767 121.06836 84.152344 z M 129.30469 99.003906 C 130.67876 98.963871 132.06071 99.827276 132.54102 101.13086 C 132.51043 101.94671 131.65419 102.28445 131.11338 102.73959 C 130.04059 103.51472 128.88377 104.35116 128.41572 105.64707 C 127.80126 106.8718 126.85072 107.92493 126.43945 109.25 C 125.75161 109.64966 125.81014 110.60816 126.15355 111.21898 C 126.67614 113.37438 125.79212 115.62744 124.42236 117.28494 C 123.49025 118.52182 122.78838 120.07558 121.31789 120.77322 C 120.83445 121.01351 120.32283 121.19198 119.8418 121.4375 C 119.47353 121.13576 119.63692 120.60022 119.5176 120.19148 C 119.33728 118.14672 119.09943 116.10408 118.98809 114.05504 C 119.05738 112.54556 119.70123 111.14915 120.04708 109.69513 C 120.64076 107.61967 121.23444 105.54421 121.82812 103.46875 C 123.25065 102.05013 124.67318 100.63151 126.0957 99.212891 C 127.21615 99.014323 128.33659 98.815755 129.45703 98.617188 C 129.40625 98.746094 129.35547 98.875 129.30469 99.003906 z M 74.632812 106.30469 C 74.5758 106.25477 74.650236 106.15196 74.632812 106.30469 z M 74.630859 106.34961 C 74.69603 106.41539 74.561145 106.32282 74.630859 106.34961 z M 74.652344 106.64453 C 74.734182 106.88763 75.004109 107.08859 74.925781 107.36914 C 74.595145 107.30166 74.478724 106.86065 74.648438 106.5957 L 74.652295 106.64392 L 74.652344 106.64453 z M 75.074219 107.77344 C 75.19088 107.83893 74.952234 107.7651 75.074219 107.77344 z M 75.037109 108.12891 C 74.992525 108.10524 75.071715 108.04249 75.037109 108.12891 z M 102.75781 110.59961 C 102.81134 110.76382 102.70778 110.56014 102.75781 110.59961 z M 87.734375 111.86523 C 88.534505 113.26953 89.334635 114.67383 90.134766 116.07812 C 90.167318 116.4349 90.19987 116.79167 90.232422 117.14844 C 89.42513 116.58529 88.617839 116.02214 87.810547 115.45898 C 87.59375 114.12044 87.376953 112.7819 87.160156 111.44336 C 87.351562 111.58398 87.542969 111.72461 87.734375 111.86523 z "
         id="path866"
         inkscape:connector-curvature="0" />
      <path
         style="color:#000000;font-style:normal;font-variant:normal;font-weight:normal;font-stretch:normal;font-size:medium;line-height:normal;font-family:sans-serif;font-variant-ligatures:normal;font-variant-position:normal;font-variant-caps:normal;font-variant-numeric:normal;font-variant-alternates:normal;font-feature-settings:normal;text-indent:0;text-align:start;text-decoration:none;text-decoration-line:none;text-decoration-style:solid;text-decoration-color:#000000;letter-spacing:normal;word-spacing:normal;text-transform:none;writing-mode:lr-tb;direction:ltr;text-orientation:mixed;dominant-baseline:auto;baseline-shift:baseline;text-anchor:start;white-space:normal;shape-padding:0;clip-rule:nonzero;display:inline;overflow:visible;visibility:visible;opacity:1;isolation:auto;mix-blend-mode:normal;color-interpolation:sRGB;color-interpolation-filters:linearRGB;solid-color:#000000;solid-opacity:1;vector-effect:none;fill:#006e00;fill-opacity:1;fill-rule:nonzero;stroke:url(#radialGradient923);stroke-width:8.41879463;stroke-linecap:butt;stroke-linejoin:miter;stroke-miterlimit:4;stroke-dasharray:none;stroke-dashoffset:0;stroke-opacity:1;color-rendering:auto;image-rendering:auto;shape-rendering:auto;text-rendering:auto;enable-background:accumulate"
         d="m 65.736171,86.08824 -1.779297,5.126953 -3.521485,1.048828 0.84961,2.636719 -1.078125,0.257813 0.605468,2.355468 -2.703125,2.220696 2.035157,2.291003 -0.07617,3.8047 -0.04492,2.33203 0.08789,0.15039 -3.070313,4.40429 2.232422,1.44141 3.169922,5.73047 0.701172,0.4707 0.03516,1.72656 -6.21875,2.875 0.662109,1.32422 -3.380859,1.875 2.308594,3.85547 -4.326172,-0.33789 7.818359,8.10742 1.992188,2.07032 1.175781,0.18164 1.816406,4.35156 0.03906,-0.0156 -0.04492,0.10352 3.546875,1.44336 0.716797,1.6543 0.251953,0.58203 -0.677735,4.18164 2.658204,0.40039 -0.01367,-0.0293 2.179687,1.38867 4.648438,2.96289 2.05664,-2.98828 1.628907,0.2461 2.011718,1.65234 1.056641,-1.19141 0.580078,0.0879 0.146484,-0.9043 0.441407,-0.49805 2.417968,-0.13672 0.0039,0.006 -0.544922,0.0312 0.308593,1.09375 0.88086,-0.31836 4.855469,6.08985 -0.458985,-7.39844 0.626953,-0.46289 1.386719,-0.47071 1.263671,-0.36328 0.23828,0.53711 2.324237,5.23828 0.416007,-0.16992 0.142583,0.45899 0.27344,-0.63086 4.64648,-1.90235 5.4375,2.2461 0.77929,-1.73047 3.69922,-0.19141 -0.11523,-2.05664 3.93359,-1.46094 1.11328,2.08594 7.49414,-3.69922 -0.41406,0.80078 2.38672,0.52539 0.49414,-2.07812 2.02734,0.50977 2.12891,2.18164 3.63867,-3.25196 4.37891,1.58203 1.64648,-4.2207 2.74805,0.24414 1.5625,-16.61523 -3.42188,-0.29688 0.99024,-1.24609 -1.35742,-1 0.96093,-7.79102 -0.13671,-0.36523 4.00195,-0.69141 -0.71094,-3.80468 3.79492,-1.76954 -2.69922,-5.36718 0.5625,1.07226 0.4375,-3.54101 -0.11328,-0.0137 0.48828,-0.77734 -2.26171,-1.31641 -0.57227,1.47657 -0.32813,-1.94727 1.18946,-3.61717 -3.03711,-0.92383 0.88867,-1.904299 -0.2168,-2.388672 1.17774,-4.105469 -11.83789,-3.140625 -0.61524,-1.164062 -1.32422,0.648437 -2.63867,-0.699219 -0.66406,2.31836 -1.00781,0.49414 -1.34375,0.658203 -2.87696,1.929688 -0.17968,1.65625 -2.47852,0.111328 -7.34961,4.904297 -0.88281,-0.376953 -0.0957,1.029298 -2.72852,1.820288 -4.31641,-2.128893 -1.47461,-0.728506 -12.164064,-6.003906 -8.708984,6.824212 -3.080079,0.619153 -1.509765,-0.3711 0.326172,0.25195 v 1.38671 l -0.564454,-1.697262 -0.01562,-0.004 v -0.0391 l -0.0059,-0.0195 v 0.0567 l -1.09375,-0.267591 h 0.923828 l 0.177735,0.13672 v -0.0137 l 1.09375,-3.134754 -0.46875,-1.982422 1.18164,-3.416016 z m -1.78125,5.13086 -0.90625,2.609374 -0.517579,-2.183593 z m 61.125009,3.492187 -0.13281,1.220703 v -1.015625 z m 11.93554,2.806641 0.55274,0.146484 -0.57813,1.240234 -0.76562,1.648444 0.14453,0.77539 -0.13086,0.11132 0.41992,1.69335 v 1.04102 l 0.35157,0.375 0.42968,1.73632 1.39063,0.42383 -0.76758,1.98242 0.94336,0.54883 -1.47461,2.3418 3.04687,1.29297 -0.29296,0.42187 -1.43946,0.78125 -0.39258,0.21289 -1.80664,1 -0.40039,2.17969 -0.45898,2.54102 -2.95899,-0.33789 0.0137,0.0644 -0.47657,-0.83789 v -1.07227 l -0.92578,-0.55859 -0.50586,-0.89258 -1.02539,-0.0312 -0.0391,-0.0234 -0.4375,-0.26367 0.004,0.0156 -0.0195,-0.0254 -1.45312,-2.06446 h 0.002 l -0.16211,-0.22851 v -0.002 l -0.13476,-2.00781 -0.006,-0.002 -0.19336,-2.80274 -3.63867,-5.18164 1.53515,-1.02343 3.02344,-0.13477 2.99414,-2.13475 0.63477,-0.980468 h 0.002 l 0.0293,-0.0469 2.86523,5.416008 z m -65.08594,0.09961 -0.253906,0.730469 -0.01172,1.31835 -0.578125,-1.794913 z m -0.273438,3.478522 v 0.16406 l 0.583985,1.75975 v 1.39062 l 4.794922,3.69727 h 0.927734 l 3.279297,0.80469 h 0.927734 l 6.373047,-1.28125 0.177734,-0.13867 -4.072265,15.01757 9.292969,-6.13086 0.90625,-0.5957 0.503906,-0.5957 3.048831,-4.27149 0.15625,-6.15039 0.16211,0.0801 0.0215,-0.79883 -0.17382,6.85156 3.300764,7.05665 h 1.68165 l -0.8086,-0.40821 1.58594,0.77735 2.29297,-0.33594 2.42578,0.74609 4.01367,-7.02344 0.0762,-0.81445 0.17382,-0.11523 -0.0254,0.26953 v 0.81055 l 2.85547,9.60937 4.86914,4.65039 -3.32812,3.66602 -3.29688,0.59765 0.46289,3.26758 -5.21289,5.21485 1.10938,0.6914 -1.02344,1.52149 6.46875,2.01367 0.10547,0.75 0.50781,-0.5586 2.53906,0.79102 0.75977,-0.53516 1.30078,0.37305 -3.24609,1.20508 0.0781,-0.81055 -6.43359,-0.45312 0.01,0.006 -0.87304,-0.0664 -1.97852,-0.13867 0.006,-0.01 -0.87891,-0.0664 0.45899,-0.93946 -2.92188,-1.32812 0.18164,3.25781 -0.30078,-0.56445 V 143.012 l -0.80859,-1.25391 -1.15625,-1.79883 0.0723,0.49805 -0.83203,-1.56055 0.12305,0.0684 -0.31836,-0.49414 -8.576173,-5.5918 1.392578,9.60938 -2.259766,1.11328 1.466797,1.85937 -1.394531,0.40235 -0.04883,0.0176 -0.03516,-0.5625 h -0.002 l -0.08789,-1.41211 -1.96875,0.72265 -1.949219,-0.65234 -0.138672,0.041 -0.126953,-0.32032 -6.908203,1.36524 -0.03711,0.26562 -1.974609,-1.62304 0.164063,-0.15821 -0.710938,-0.29297 -0.03711,-0.0293 -0.002,0.0137 -3.132813,-1.28711 0.595703,-1.35156 -2.158203,-2.625 -2.669922,-3.25586 -2.017578,1.09765 -0.175781,-0.29687 -0.150391,0.0586 -0.478515,-1.14258 -1.480469,-0.22851 -0.759766,-1.26758 -0.769531,-1.2832 1.015625,-1.15821 0.04492,0.01 2.294922,-1.0918 0.06055,-0.0293 2.060546,0.29882 3.923829,-5.69726 -2.970703,-2.23828 h -0.002 l -0.378906,-0.84961 -0.341797,-0.76367 v -0.002 l 0.400391,-3.78125 -0.78711,-0.53125 -0.1875,-0.12695 -2.367187,-1.5957 -0.03516,-0.0234 2.455078,-0.0469 -0.310547,-5.21875 h -0.996094 l 0.08789,-0.12695 -0.425781,-0.71875 0.04883,-6.41797 z m 73.408208,0.96286 0.0137,0.0527 v 0.0195 z m -37.88086,7.29493 0.0957,0.0293 -0.0664,0.01 z m -28.466801,3.48633 -1.001953,1.31641 -0.28125,1.70312 -0.146484,0.86914 7.476562,3.2793 0.63086,-0.8125 0.734375,-2.69922 z m -15.658203,3.75977 0.816406,0.52734 2.667969,0.0879 -0.0039,0.0137 h -3.44336 z m 22.677735,0.64843 -0.05664,0.34766 -0.002,0.004 z m -18.076172,3.35547 0.58789,0.0859 -0.96289,0.45898 z m 74.841801,1.06836 -1.05468,0.57422 -0.67188,-0.27734 z m -9.89648,2.64844 -0.50977,0.35156 0.85547,1.40625 -0.0215,0.11914 -1.00782,-1.66406 z m -53.042978,0.82812 -0.326171,4.72852 0.08008,-0.33398 8.240234,1.2539 -0.796875,0.57813 0.748047,0.11328 0.970703,-4.08399 z m -15.328125,0.42969 0.958985,0.28516 0.539062,1.20703 -0.01758,0.0508 -1.673828,-1.26172 z m 60.835943,1.49414 7.46875,1.26563 -0.47265,2.58984 1.44921,1.0625 -1.23828,1.55274 2.21485,1.64257 1.49414,4.45118 h 2.17187 l 1.63086,0.69531 -3.38672,1.2168 -0.62695,-0.22657 -1.37695,1.23047 1.83593,1.88086 -1.98437,-0.49805 -0.0371,-0.01 v 0.004 l -0.004,-0.004 -0.004,-0.002 -0.38281,-0.50196 -0.3125,-0.40625 -1.57813,-2.07031 -7.7207,0.70898 v 0.40235 l -0.77735,0.002 -0.36132,1.52344 -0.28516,-0.0625 -0.0547,-0.10156 -0.15039,0.0566 -0.12891,-0.0293 -0.0488,0.0937 -0.9668,0.36133 0.51758,-1.66602 0.16601,-0.11718 0.35938,-0.67579 0.27539,0.22461 0.16406,-1.04687 1.4082,-2.64258 v -1.14453 l -0.17382,-4.07617 z m 14.80078,4.14453 h 1.16211 l 0.0156,0.1211 -0.60547,-0.0527 -0.2207,0.0781 0.8789,0.37695 z m -16.21093,4.61133 0.0898,0.63477 0.0352,0.25781 0.0156,0.10742 0.0566,0.39649 -0.36523,0.0664 0.0742,-0.24023 -0.12305,0.11719 z m -56.363293,5.47657 h 0.002 l -0.281296,0.64062 -0.002,-0.002 z m 11.851563,3.15429 -0.460938,2.84375 -1.296875,-0.19531 -0.292968,-0.67773 z m 65.41798,1.53711 -0.0664,1.58984 -0.64453,0.23047 0.21289,-0.54492 z m -38.64454,0.68945 0.0937,1.67579 -0.86328,-0.35547 0.51953,-1.19727 z m -16.402346,5.10352 -0.05078,0.36719 -0.333984,0.0664 z"
         id="path866-5"
         inkscape:connector-curvature="0" />
    </g>
  </g>
</svg>
